<svg width="64" height="64" viewBox="0 0 64 64" fill="none" xmlns="http://www.w3.org/2000/svg">
<g clip-path="url(#clip0_9_2)">
<path d="M49 40C53.9706 40 58 35.9706 58 31C58 26.0294 53.9706 22 49 22C44.0294 22 40 26.0294 40 31C40 35.9706 44.0294 40 49 40Z" stroke="#E7BC00" stroke-width="7"/>
</g>
<g clip-path="url(#clip1_9_2)">
<path d="M23.4447 18.9258L15.9315 26.4394C13.4272 23.936 10.9222 21.4301 8.41748 18.9258C5.52002 16.0283 1.02874 20.5212 3.92378 23.4195C6.42886 25.9222 8.93474 28.4284 11.437 30.9327C8.9336 33.4381 6.4292 35.9425 3.92378 38.4459C1.02874 41.3426 5.52042 45.8343 8.41748 42.9396C10.9218 40.4345 13.4268 37.9291 15.9311 35.4256L23.4443 42.9396C26.3418 45.8363 30.8343 41.343 27.938 38.4459C25.4329 35.9408 22.9287 33.4366 20.4228 30.9319C22.9283 28.4268 25.4325 25.9218 27.938 23.4171C30.8347 20.5212 26.3422 16.0283 23.4443 18.9274" fill="#009DDC"/>
</g>
<defs>
<clipPath id="clip0_9_2">
<rect width="25.863" height="25.863" fill="white" transform="translate(36.137 18)"/>
</clipPath>
<clipPath id="clip1_9_2">
<rect width="25.863" height="25.863" fill="white" transform="translate(3 18)"/>
</clipPath>
</defs>
</svg>
