<svg width="48" height="48" viewBox="0 0 48 48" fill="none" xmlns="http://www.w3.org/2000/svg">
<g clip-path="url(#clip0_6_146)">
<path d="M10.0559 46.2817L23.9999 32.337C28.6477 36.9832 33.2969 41.634 37.9455 46.2817C43.323 51.6592 51.6585 43.3207 46.2855 37.9417C41.6362 33.297 36.9854 28.6455 32.3414 23.9978C36.9876 19.3479 41.6356 14.6999 46.2855 10.0537C51.6585 4.67775 43.3222 -3.6585 37.9455 1.71375C33.2977 6.363 28.6484 11.013 24.0007 15.6593L10.0567 1.71375C4.6792 -3.66225 -3.65855 4.677 1.7167 10.0537C6.36595 14.703 11.0137 19.3508 15.6644 23.9993C11.0144 28.6485 6.3667 33.2978 1.7167 37.9463C-3.6593 43.3208 4.67845 51.6592 10.0567 46.2787" fill="#009DDC"/>
</g>
<defs>
<clipPath id="clip0_6_146">
<rect width="48" height="48" fill="white" transform="translate(48 48) rotate(-180)"/>
</clipPath>
</defs>
</svg>
