<svg width="38" height="43" viewBox="0 0 38 43" fill="none" xmlns="http://www.w3.org/2000/svg">
<path d="M32.966 21.0134L19.9609 7.47501C19.8673 7.37727 19.756 7.29972 19.6336 7.24681C19.5112 7.19391 19.3799 7.16667 19.2473 7.16667C19.1148 7.16667 18.9835 7.19391 18.8611 7.24681C18.7386 7.29972 18.6274 7.37727 18.5338 7.47501L5.52864 21.0134C5.14976 21.4081 4.93506 21.9442 4.93506 22.5034C4.93506 23.6645 5.84122 24.6085 6.95576 24.6085H8.32606V34.2689C8.32606 34.8511 8.77756 35.3214 9.33641 35.3214H17.2266V27.9536H20.7629V35.3214H29.1583C29.7171 35.3214 30.1686 34.8511 30.1686 34.2689V24.6085H31.5389C32.0757 24.6085 32.5903 24.3881 32.9692 23.9901C33.7554 23.1678 33.7554 21.8357 32.966 21.0134V21.0134Z" fill="white"/>
</svg>
