<svg width="39" height="36" viewBox="0 0 39 36" fill="none" xmlns="http://www.w3.org/2000/svg">
<path d="M27.6132 11.1708C26.5425 10.0906 25.243 9.26458 23.8104 8.75388C22.3777 8.24318 20.8487 8.06081 19.3362 8.22023C14.6485 8.69284 10.791 12.4992 10.2673 17.187C9.56475 23.3819 14.3547 28.6061 20.3964 28.6061C22.3252 28.6061 24.2145 28.0588 25.8447 27.0278C27.4749 25.9968 28.7791 24.5243 29.6058 22.7816C30.0145 21.9258 29.4014 20.9423 28.4562 20.9423C27.9836 20.9423 27.5365 21.1977 27.3322 21.6192C26.5906 23.2146 25.3221 24.5059 23.7402 25.2759C22.1584 26.0459 20.3596 26.2476 18.6464 25.8471C15.8108 25.2212 13.5244 22.9093 12.9241 20.0737C12.6717 18.9525 12.6746 17.789 12.9326 16.6691C13.1906 15.5493 13.6971 14.5017 14.4145 13.604C15.132 12.7063 16.0421 11.9813 17.0775 11.4828C18.1129 10.9842 19.2472 10.7248 20.3964 10.7238C22.5167 10.7238 24.4071 11.6051 25.7866 12.9974L23.8579 14.9261C23.0532 15.7308 23.6152 17.1103 24.752 17.1103H29.3375C30.04 17.1103 30.6148 16.5355 30.6148 15.833V11.2475C30.6148 10.1107 29.2353 9.53586 28.4306 10.3406L27.6132 11.1708V11.1708Z" fill="white"/>
</svg>
