<svg width="572" height="79" viewBox="0 0 572 79" fill="none" xmlns="http://www.w3.org/2000/svg">
<g clip-path="url(#clip0_6_92)">
<path d="M46.0685 55.6301C51.4249 55.6301 55.7671 51.2879 55.7671 45.9315C55.7671 40.5751 51.4249 36.2329 46.0685 36.2329C40.7121 36.2329 36.3699 40.5751 36.3699 45.9315C36.3699 51.2879 40.7121 55.6301 46.0685 55.6301Z" stroke="#E7BC00" stroke-width="7"/>
</g>
<g clip-path="url(#clip1_6_92)">
<path d="M20.4447 33.9258L12.9315 41.4394C10.4272 38.936 7.92212 36.4301 5.41745 33.9258C2.51999 31.0283 -1.97129 35.5212 0.923752 38.4195C3.42883 40.9222 5.93471 43.4284 8.43696 45.9327C5.93357 48.4381 3.42916 50.9425 0.923752 53.4459C-1.97129 56.3426 2.52039 60.8343 5.41745 57.9396C7.92172 55.4345 10.4268 52.9291 12.9311 50.4256L20.4443 57.9396C23.3417 60.8363 27.8342 56.343 24.938 53.4459C22.4329 50.9408 19.9286 48.4366 17.4227 45.9319C19.9282 43.4268 22.4325 40.9218 24.938 38.4171C27.8346 35.5212 23.3421 31.0283 20.4443 33.9274" fill="#009DDC"/>
</g>
<g clip-path="url(#clip2_6_92)">
<path d="M525.931 36.2329C520.575 36.2329 516.233 40.5751 516.233 45.9315C516.233 51.2879 520.575 55.6301 525.931 55.6301C531.288 55.6301 535.63 51.2879 535.63 45.9315C535.63 40.5751 531.288 36.2329 525.931 36.2329Z" stroke="#E7BC00" stroke-width="7"/>
</g>
<g clip-path="url(#clip3_6_92)">
<path d="M551.555 57.9372L559.069 50.4236C561.573 52.927 564.078 55.4329 566.583 57.9372C569.48 60.8347 573.971 56.3418 571.076 53.4435C568.571 50.9408 566.065 48.4346 563.563 45.9303C566.066 43.4249 568.571 40.9205 571.076 38.4171C573.971 35.5204 569.48 31.0287 566.583 33.9234C564.078 36.4285 561.573 38.9339 559.069 41.4374L551.556 33.9234C548.658 31.0267 544.166 35.52 547.062 38.4171C549.567 40.9222 552.071 43.4264 554.577 45.9311C552.072 48.4362 549.568 50.9412 547.062 53.4459C544.165 56.3418 548.658 60.8347 551.556 57.9356" fill="#009DDC"/>
</g>
<path d="M103.32 54.24V19.8H108.92V55.528L102.424 59.28H91.616L85.12 55.528V46.4H90.72V54.24H103.32ZM140.569 54.128V59H124.945L118.449 55.248V34.472L124.945 30.72H134.073L140.569 34.472V46.904H123.881V54.128H140.569ZM123.881 35.592V42.032H135.137V35.592H123.881ZM149.511 55.528V31H154.943V54.408H167.879V31H173.311V59.28H169.223L167.879 56.984L163.903 59.28H156.007L149.511 55.528ZM203.312 30.72H211.768L215.744 33.016V18.12H221.176V59.28H217.088L215.744 56.984L211.768 59.28H203.312L196.816 55.528V34.472L203.312 30.72ZM215.744 54.408V35.592H202.248V54.408H215.744ZM230.121 55.528V31H235.553V54.408H248.489V31H253.921V59.28H249.833L248.489 56.984L244.513 59.28H236.617L230.121 55.528ZM312.145 59V27.08H312.033L300.497 59H294.897L283.417 27.08H283.305V59H277.985V19.8H285.881L297.641 52.504H297.753L309.569 19.8H317.465V59H312.145ZM350.772 55.528L344.276 59.28H333.468L326.972 55.528V34.472L333.468 30.72H344.276L350.772 34.472V55.528ZM332.404 35.592V54.408H345.34V35.592H332.404ZM375.354 35.872H365.162V59H359.73V31H363.818L365.162 33.296L369.138 31H375.354V35.872ZM399.36 59.28H390.904L386.928 56.984V70.2H381.496V30.72H385.584L386.928 33.016L390.904 30.72H399.36L405.856 34.472V55.528L399.36 59.28ZM386.928 35.592V54.408H400.424V35.592H386.928ZM420.232 31V59H414.8V31H420.232ZM414.52 24.112V18.12H420.512V24.112H414.52ZM452.983 55.528L446.487 59.28H435.679L429.183 55.528V34.472L435.679 30.72H446.487L452.983 34.472V55.528ZM434.615 35.592V54.408H447.551V35.592H434.615ZM485.741 34.472V59H480.309V35.592H467.373V59H461.941V30.72H466.029L467.373 33.016L471.349 30.72H479.245L485.741 34.472Z" fill="white"/>
<defs>
<clipPath id="clip0_6_92">
<rect width="25.863" height="25.863" fill="white" transform="translate(33.137 33)"/>
</clipPath>
<clipPath id="clip1_6_92">
<rect width="25.863" height="25.863" fill="white" transform="translate(0 33)"/>
</clipPath>
<clipPath id="clip2_6_92">
<rect width="25.863" height="25.863" fill="white" transform="translate(538.863 58.863) rotate(-180)"/>
</clipPath>
<clipPath id="clip3_6_92">
<rect width="25.863" height="25.863" fill="white" transform="translate(572 58.863) rotate(-180)"/>
</clipPath>
</defs>
</svg>
